<svg width="20" height="20" viewBox="0 0 20 20" fill="none" xmlns="http://www.w3.org/2000/svg">
<path d="M16.976 1.25H6.34668C6.2638 1.25 6.18431 1.28292 6.12571 1.34153C6.0671 1.40013 6.03418 1.47962 6.03418 1.5625C6.03418 1.64538 6.0671 1.72487 6.12571 1.78347C6.18431 1.84208 6.2638 1.875 6.34668 1.875H16.976C17.2806 1.87531 17.5726 1.99645 17.788 2.21182C18.0034 2.4272 18.1246 2.71923 18.1249 3.02383V13.6534C18.1249 13.7363 18.1579 13.8158 18.2165 13.8744C18.2751 13.933 18.3546 13.9659 18.4374 13.9659C18.5203 13.9659 18.5998 13.933 18.6584 13.8744C18.717 13.8158 18.7499 13.7363 18.7499 13.6534V3.02383C18.7494 2.55353 18.5623 2.10266 18.2297 1.77012C17.8971 1.43758 17.4463 1.25053 16.976 1.25Z" fill="#2271B1"/>
<path d="M17.197 15.2939C17.168 15.2649 17.1335 15.2418 17.0956 15.2261C17.0577 15.2104 17.0171 15.2024 16.9761 15.2024C16.935 15.2024 16.8944 15.2104 16.8565 15.2261C16.8186 15.2418 16.7841 15.2649 16.7551 15.2939C16.7261 15.3229 16.7031 15.3573 16.6874 15.3952C16.6717 15.4332 16.6636 15.4738 16.6636 15.5148C16.6636 15.5559 16.6717 15.5965 16.6874 15.6344C16.7031 15.6723 16.7261 15.7068 16.7551 15.7358L17.6831 16.6637H4.48521C4.18065 16.6633 3.88867 16.5421 3.67333 16.3267C3.45799 16.1114 3.33686 15.8194 3.33653 15.5148V2.31692L4.26426 3.24477C4.32286 3.30337 4.40234 3.33629 4.48521 3.33629C4.56808 3.33629 4.64756 3.30337 4.70616 3.24477C4.76475 3.18617 4.79767 3.1067 4.79767 3.02382C4.79767 2.94095 4.76475 2.86148 4.70616 2.80288L3.24497 1.34155C3.21596 1.31253 3.18152 1.2895 3.14361 1.27379C3.1057 1.25809 3.06506 1.25 3.02403 1.25C2.98299 1.25 2.94236 1.25809 2.90445 1.27379C2.86653 1.2895 2.83209 1.31253 2.80308 1.34155L1.3416 2.80288C1.28361 2.8616 1.25121 2.94088 1.25147 3.02341C1.25172 3.10594 1.28462 3.18502 1.34298 3.24338C1.40134 3.30174 1.48041 3.33464 1.56294 3.3349C1.64547 3.33516 1.72475 3.30276 1.78348 3.24477L2.71153 2.31685V15.5148C2.71203 15.9851 2.89905 16.436 3.23157 16.7685C3.56409 17.1011 4.01494 17.2881 4.48521 17.2887H17.6831L16.7551 18.2166C16.7258 18.2455 16.7025 18.28 16.6865 18.3179C16.6706 18.3559 16.6623 18.3967 16.6622 18.4379C16.6621 18.4791 16.6701 18.5199 16.6858 18.558C16.7015 18.5961 16.7246 18.6307 16.7537 18.6598C16.7829 18.689 16.8175 18.712 16.8555 18.7278C16.8936 18.7435 16.9345 18.7515 16.9757 18.7513C17.0169 18.7512 17.0576 18.7429 17.0956 18.727C17.1336 18.711 17.1681 18.6877 17.197 18.6584L18.6585 17.1971C18.6875 17.1681 18.7105 17.1336 18.7262 17.0957C18.7419 17.0578 18.75 17.0172 18.75 16.9762C18.75 16.9351 18.7419 16.8945 18.7262 16.8566C18.7105 16.8187 18.6875 16.7842 18.6585 16.7552L17.197 15.2939Z" fill="#2271B1"/>
<path d="M6.81128 6.32666C6.77024 6.32665 6.7296 6.33473 6.69168 6.35043C6.65376 6.36613 6.6193 6.38914 6.59028 6.41816C6.56126 6.44719 6.53824 6.48164 6.52254 6.51956C6.50684 6.55748 6.49877 6.59812 6.49878 6.63916V12.7067C6.49878 12.7895 6.5317 12.869 6.59031 12.9276C6.64891 12.9862 6.7284 13.0192 6.81128 13.0192C6.89416 13.0192 6.97364 12.9862 7.03225 12.9276C7.09085 12.869 7.12378 12.7895 7.12378 12.7067V8.18609C7.12425 7.91789 7.23112 7.66084 7.42094 7.47135C7.61075 7.28187 7.868 7.17545 8.1362 7.17545C8.4044 7.17545 8.66165 7.28187 8.85146 7.47135C9.04128 7.66084 9.14815 7.91789 9.14862 8.18609V12.7067C9.14862 12.7895 9.18154 12.869 9.24015 12.9276C9.29875 12.9862 9.37824 13.0192 9.46112 13.0192C9.544 13.0192 9.62349 12.9862 9.68209 12.9276C9.7407 12.869 9.77362 12.7895 9.77362 12.7067V8.18609C9.77409 7.91789 9.88096 7.66084 10.0708 7.47135C10.2606 7.28187 10.5178 7.17545 10.786 7.17545C11.0542 7.17545 11.3115 7.28187 11.5013 7.47135C11.6911 7.66084 11.798 7.91789 11.7985 8.18609V12.7067C11.7985 12.7895 11.8314 12.869 11.89 12.9276C11.9486 12.9862 12.0281 13.0192 12.111 13.0192C12.1938 13.0192 12.2733 12.9862 12.3319 12.9276C12.3905 12.869 12.4235 12.7895 12.4235 12.7067V8.18609C12.4243 7.83975 12.315 7.50211 12.1114 7.22193C11.9078 6.94175 11.6204 6.73354 11.2907 6.62735C10.961 6.52116 10.6062 6.52249 10.2773 6.63115C9.94845 6.73982 9.66263 6.95019 9.46114 7.23189C9.33346 7.05128 9.17006 6.8988 8.98107 6.78389C8.79208 6.66899 8.58151 6.59409 8.3624 6.56385C8.1433 6.5336 7.92032 6.54866 7.70726 6.60807C7.49421 6.66748 7.29561 6.77 7.12378 6.90926V6.63916C7.12379 6.59812 7.11571 6.55748 7.10001 6.51956C7.08431 6.48164 7.06129 6.44719 7.03227 6.41817C7.00325 6.38915 6.9688 6.36613 6.93088 6.35043C6.89296 6.33473 6.85232 6.32665 6.81128 6.32666Z" fill="#2271B1"/>
<path d="M15.7107 6.47312C15.8475 6.27174 15.9208 6.03392 15.921 5.79045C15.9212 5.62883 15.8896 5.46876 15.8279 5.31937C15.7663 5.16999 15.6758 5.03423 15.5616 4.91986C15.4474 4.80549 15.3118 4.71476 15.1625 4.65285C15.0132 4.59095 14.8532 4.55908 14.6916 4.55908C14.5299 4.55908 14.3699 4.59095 14.2206 4.65285C14.0714 4.71476 13.9357 4.80549 13.8215 4.91986C13.7074 5.03423 13.6168 5.16999 13.5552 5.31937C13.4935 5.46876 13.4619 5.62883 13.4622 5.79045C13.4622 5.87333 13.4951 5.95281 13.5537 6.01142C13.6123 6.07002 13.6918 6.10295 13.7747 6.10295C13.8575 6.10295 13.937 6.07002 13.9956 6.01142C14.0542 5.95281 14.0872 5.87333 14.0872 5.79045C14.087 5.71096 14.1025 5.63222 14.1328 5.55873C14.1631 5.48524 14.2076 5.41845 14.2637 5.36218C14.3198 5.30591 14.3865 5.26127 14.4599 5.23081C14.5334 5.20035 14.6121 5.18467 14.6916 5.18467C14.771 5.18467 14.8498 5.20035 14.9232 5.23081C14.9966 5.26127 15.0633 5.30591 15.1194 5.36218C15.1756 5.41845 15.2201 5.48524 15.2504 5.55873C15.2806 5.63222 15.2961 5.71096 15.296 5.79045C15.2962 5.90474 15.263 6.01661 15.2004 6.11225L13.7387 7.68131C13.6808 7.74308 13.6423 7.82039 13.6278 7.90377C13.6133 7.98714 13.6235 8.07292 13.6571 8.15057C13.6907 8.22823 13.7463 8.29436 13.817 8.34084C13.8877 8.38733 13.9705 8.41213 14.0551 8.41221H15.5795C15.6623 8.41221 15.7418 8.37928 15.8004 8.32068C15.859 8.26207 15.892 8.18259 15.892 8.09971C15.892 8.01683 15.859 7.93734 15.8004 7.87874C15.7418 7.82013 15.6623 7.78721 15.5795 7.78721H14.4973L15.617 6.59641C15.6253 6.58756 15.7107 6.47312 15.7107 6.47312Z" fill="#2271B1"/>
</svg>
