<svg width="20" height="20" viewBox="0 0 20 20" fill="none" xmlns="http://www.w3.org/2000/svg">
<g clip-path="url(#clip0_606_1490)">
<path d="M18.8817 5.92173L10.1573 0.638408C10.1089 0.608882 10.0533 0.593262 9.9966 0.593262C9.9399 0.593262 9.8843 0.608882 9.8359 0.638408L1.11715 5.92173C1.07241 5.95013 1.03588 5.98974 1.01121 6.03664C0.986541 6.08354 0.974581 6.13608 0.976522 6.18903V19.094C0.976522 19.2666 1.09851 19.4139 1.27109 19.4139H3.13152C3.21448 19.412 3.29328 19.3772 3.35063 19.3172C3.40798 19.2572 3.43921 19.177 3.43746 19.094V10.2342H16.5625V19.094C16.5607 19.177 16.5919 19.2572 16.6493 19.3172C16.7066 19.3772 16.7854 19.412 16.8684 19.4139H18.7288C18.9014 19.4139 19.0234 19.2666 19.0234 19.094V6.18911C19.0251 6.13605 19.013 6.08346 18.9881 6.03656C18.9633 5.98965 18.9266 5.95007 18.8817 5.92173ZM3.43746 9.60923V8.35923H16.5625V9.60923H3.43746ZM18.3984 18.7889H17.1875V8.04958C17.1861 7.96573 17.1519 7.88575 17.0923 7.8268C17.0326 7.76785 16.9523 7.73462 16.8684 7.73423H3.13152C3.04766 7.73462 2.96729 7.76785 2.90764 7.8268C2.848 7.88575 2.81383 7.96573 2.81246 8.04958V18.7889H1.60152V6.36528L9.99996 1.27103L18.3984 6.36528V18.7889Z" fill="#2271B1"/>
<path d="M14.8543 13.7457L14.0284 11.5107C13.9538 11.3095 13.8199 11.1358 13.6443 11.0125C13.4687 10.8892 13.2598 10.8222 13.0453 10.8203H7.10209C6.88755 10.8222 6.67865 10.8892 6.50306 11.0125C6.32748 11.1358 6.1935 11.3095 6.11888 11.5107L5.30451 13.7116L4.98365 14.0143C4.82883 14.1476 4.70474 14.3129 4.61991 14.4988C4.53508 14.6847 4.49153 14.8867 4.49224 15.0911V19.0941C4.49066 19.1772 4.52204 19.2575 4.57952 19.3174C4.637 19.3774 4.71589 19.4121 4.79892 19.4141H6.88428C6.92522 19.413 6.96555 19.4039 7.00297 19.3873C7.04039 19.3706 7.07415 19.3468 7.10233 19.3171C7.1305 19.2873 7.15253 19.2523 7.16716 19.2141C7.18178 19.1758 7.18872 19.1351 7.18756 19.0941V17.9688H12.8126V19.0941C12.8114 19.1351 12.8183 19.1758 12.833 19.2141C12.8476 19.2523 12.8696 19.2873 12.8978 19.3171C12.926 19.3468 12.9597 19.3706 12.9971 19.3873C13.0346 19.4039 13.0749 19.413 13.1158 19.4141H15.2012C15.2842 19.4121 15.3631 19.3774 15.4206 19.3174C15.4781 19.2575 15.5095 19.1772 15.5079 19.0941V15.0068C15.5081 14.8159 15.4698 14.6269 15.3953 14.4512C15.3208 14.2755 15.2116 14.1166 15.0743 13.984L14.8543 13.7457ZM6.70494 11.7344C6.7346 11.652 6.78831 11.5804 6.85912 11.5288C6.92992 11.4773 7.01456 11.4482 7.10209 11.4453H13.0453C13.1328 11.4482 13.2174 11.4773 13.2882 11.5288C13.359 11.5804 13.4127 11.652 13.4424 11.7344L14.1265 13.5938H6.02076L6.70494 11.7344ZM6.56256 18.7891H5.11724V17.9688H6.56256V18.7891ZM13.4376 18.7891V17.9688H14.8829V18.7891H13.4376ZM14.8829 17.3438H5.11724V15.0911C5.11661 14.9764 5.14103 14.863 5.1888 14.7587C5.23656 14.6545 5.30651 14.5619 5.39377 14.4875C5.39736 14.4845 5.39943 14.4879 5.40291 14.4847L5.69459 14.2188H14.4286L14.627 14.4242C14.6314 14.4289 14.6331 14.4302 14.6378 14.4346C14.7155 14.5082 14.7773 14.5969 14.8195 14.6953C14.8616 14.7937 14.8832 14.8997 14.8829 15.0068V17.3438Z" fill="#2271B1"/>
<path d="M6.65973 14.9609H6.47949C6.23603 14.9609 6.00254 15.0577 5.83039 15.2298C5.65824 15.402 5.56152 15.6354 5.56152 15.8789C5.56152 16.1224 5.65824 16.3559 5.83039 16.528C6.00254 16.7002 6.23603 16.7969 6.47949 16.7969H6.65973C6.90319 16.7969 7.13668 16.7002 7.30883 16.528C7.48098 16.3559 7.5777 16.1224 7.5777 15.8789C7.5777 15.6354 7.48098 15.402 7.30883 15.2298C7.13668 15.0577 6.90319 14.9609 6.65973 14.9609ZM6.65973 16.1719H6.47949C6.40179 16.1719 6.32727 16.141 6.27233 16.0861C6.21739 16.0311 6.18652 15.9566 6.18652 15.8789C6.18652 15.8012 6.21739 15.7267 6.27233 15.6717C6.32727 15.6168 6.40179 15.5859 6.47949 15.5859H6.65973C6.73743 15.5859 6.81194 15.6168 6.86689 15.6717C6.92183 15.7267 6.9527 15.8012 6.9527 15.8789C6.9527 15.9566 6.92183 16.0311 6.86689 16.0861C6.81194 16.141 6.73743 16.1719 6.65973 16.1719Z" fill="#2271B1"/>
<path d="M13.5206 14.9609H13.3403C13.0969 14.9609 12.8634 15.0577 12.6912 15.2298C12.5191 15.402 12.4224 15.6354 12.4224 15.8789C12.4224 16.1224 12.5191 16.3559 12.6912 16.528C12.8634 16.7002 13.0969 16.7969 13.3403 16.7969H13.5206C13.764 16.7969 13.9975 16.7002 14.1697 16.528C14.3418 16.3559 14.4385 16.1224 14.4385 15.8789C14.4385 15.6354 14.3418 15.402 14.1697 15.2298C13.9975 15.0577 13.764 14.9609 13.5206 14.9609ZM13.5206 16.1719H13.3403C13.2626 16.1719 13.1881 16.141 13.1332 16.0861C13.0782 16.0311 13.0474 15.9566 13.0474 15.8789C13.0474 15.8012 13.0782 15.7267 13.1332 15.6717C13.1881 15.6168 13.2626 15.5859 13.3403 15.5859H13.5206C13.5983 15.5859 13.6728 15.6168 13.7277 15.6717C13.7827 15.7267 13.8135 15.8012 13.8135 15.8789C13.8135 15.9566 13.7827 16.0311 13.7277 16.0861C13.6728 16.141 13.5983 16.1719 13.5206 16.1719Z" fill="#2271B1"/>
<path d="M11.875 15.3125C11.875 15.2296 11.8421 15.1501 11.7835 15.0915C11.7249 15.0329 11.6454 15 11.5625 15H8.39844C8.31556 15 8.23607 15.0329 8.17747 15.0915C8.11886 15.1501 8.08594 15.2296 8.08594 15.3125V16.4844C8.08594 16.5673 8.11886 16.6467 8.17747 16.7053C8.23607 16.764 8.31556 16.7969 8.39844 16.7969H11.5625C11.6454 16.7969 11.7249 16.764 11.7835 16.7053C11.8421 16.6467 11.875 16.5673 11.875 16.4844V15.3125ZM11.2891 16.1719H8.71094V15.625H11.2891V16.1719Z" fill="#2271B1"/>
</g>
<defs>
<clipPath id="clip0_606_1490">
<rect width="20" height="20" fill="white"/>
</clipPath>
</defs>
</svg>
