<svg width="22" height="22" viewBox="0 0 22 22" fill="none" xmlns="http://www.w3.org/2000/svg">
<path d="M21.4452 7.94117L11.143 3.39198C11.0523 3.35176 10.9481 3.35176 10.8574 3.39198L0.554841 7.94117C0.401872 8.00889 0.316966 8.17457 0.351341 8.33786C0.386059 8.50148 0.530434 8.6187 0.697497 8.6187H10.6463V12.3965H7.39443C7.19918 12.3965 7.04072 12.5546 7.04072 12.7502V13.7976C7.04072 13.9932 7.19918 14.1514 7.39443 14.1514H10.6463V18.2846C10.6463 18.4802 10.8048 18.6383 11 18.6383C11.1953 18.6383 11.3537 18.4802 11.3537 18.2846V14.1514H14.3684C14.5637 14.1514 14.7222 13.9932 14.7222 13.7976V12.7502C14.7222 12.5546 14.5637 12.3965 14.3684 12.3965H11.3537V8.6187H21.3022C21.4696 8.6187 21.614 8.50148 21.6484 8.33786C21.6831 8.17457 21.5982 8.00889 21.4449 7.94117H21.4452ZM14.0147 13.4439H7.74815V13.1043H14.0147V13.4439ZM11.0052 7.91092C11.0035 7.91092 11.0017 7.90989 11 7.90989C10.9983 7.90989 10.9966 7.91092 10.9949 7.91092H2.375L11 4.10251L19.6251 7.91126L11.0052 7.91092Z" fill="#2271B1"/>
<path d="M2.05143 9.91406H1.57877C1.38352 9.91406 1.22505 10.0722 1.22505 10.2678V14.8345C1.22505 14.9283 1.26252 15.0184 1.32886 15.0848C1.39521 15.1511 1.48527 15.1886 1.57912 15.1886H2.25424L0.833865 18.1304C0.748959 18.3064 0.822521 18.5178 0.998521 18.6027C1.04802 18.6264 1.10061 18.6381 1.15218 18.6381C1.28349 18.6381 1.40999 18.5645 1.47083 18.438L3.03971 15.1886H4.25624L5.40987 18.4037C5.46177 18.548 5.5979 18.6381 5.74296 18.6381C5.78283 18.6381 5.82305 18.6316 5.86258 18.6175C6.04649 18.5515 6.14205 18.3487 6.07605 18.1647L5.00802 15.1886H5.98358C6.17883 15.1886 6.3373 15.0301 6.3373 14.8345C6.3373 12.1216 4.41437 9.91441 2.05108 9.91441L2.05143 9.91406ZM1.93283 14.4808V10.6218H2.05143C3.92349 10.6218 5.46452 12.3227 5.61749 14.4808H1.93283Z" fill="#2271B1"/>
<path d="M19.5081 15.1882H20.1832C20.3784 15.1882 20.5369 15.0301 20.5369 14.8345V10.2678C20.5369 10.0722 20.3784 9.91406 20.1832 9.91406H19.7105C17.3469 9.91406 15.4243 12.1213 15.4243 14.8345C15.4243 15.0301 15.5828 15.1882 15.778 15.1882H16.7536L15.6856 18.1641C15.6196 18.348 15.7151 18.5508 15.899 18.6168C15.9386 18.6309 15.9788 18.6374 16.0187 18.6374C16.1637 18.6374 16.2998 18.5477 16.3518 18.403L17.5054 15.1879H18.7223L20.2911 18.437C20.352 18.5635 20.4785 18.6371 20.6098 18.6371C20.6613 18.6371 20.7139 18.6257 20.7634 18.6017C20.9394 18.5167 21.0133 18.3053 20.9281 18.1293L19.5077 15.1875L19.5081 15.1882ZM19.7105 10.6215H19.8291V14.4804H16.1441C16.2971 12.322 17.8385 10.6215 19.7105 10.6215Z" fill="#2271B1"/>
</svg>
