<svg width="12" height="12" viewBox="0 0 12 12" fill="none" xmlns="http://www.w3.org/2000/svg">
<g clip-path="url(#clip0_553_154)">
<path d="M7.62831 0C6.10167 0.00180029 4.86046 1.2313 4.84426 2.75785C3.2237 2.84416 1.92179 4.12507 1.80907 5.74393C1.69615 5.74423 1.60474 5.83585 1.60474 5.94876V6.94733C1.60474 7.06044 1.69645 7.15216 1.80957 7.15216H8.28742C8.40054 7.15216 8.49225 7.06044 8.49225 6.94733V5.94876C8.49225 5.83565 8.40054 5.74393 8.28742 5.74393H8.23571C8.12449 4.14527 6.85249 2.87287 5.25393 2.76105C5.26743 1.45484 6.3335 0.404766 7.63991 0.411167C8.94623 0.417468 10.0021 1.47774 10.0029 2.78415V11.7952C10.0029 11.9083 10.0946 12 10.2077 12C10.3208 12 10.4126 11.9083 10.4126 11.7952V2.78425C10.4109 1.2473 9.16526 0.00170027 7.62831 0ZM8.08259 6.74249H2.0144V6.1536H8.08259V6.74249ZM7.82494 5.74393H2.21994C2.33986 4.28519 3.55875 3.16241 5.02239 3.16241C6.48603 3.16241 7.70493 4.28519 7.82494 5.74393Z" fill="black"/>
<path d="M4.69373 8.81943C4.69373 8.5957 4.61302 8.47208 4.55411 8.38186C4.5071 8.30975 4.4812 8.26995 4.4812 8.16803C4.4812 8.05491 4.38948 7.9632 4.27637 7.9632C4.16325 7.9632 4.07153 8.05491 4.07153 8.16803C4.07153 8.39187 4.15215 8.51539 4.21106 8.6057C4.25806 8.67781 4.28407 8.71752 4.28407 8.81943C4.28407 8.92145 4.25806 8.96116 4.21106 9.03327C4.15215 9.12358 4.07153 9.2471 4.07153 9.47094C4.07153 9.69468 4.15215 9.8183 4.21106 9.90851C4.25806 9.98062 4.28407 10.0203 4.28407 10.1222C4.28407 10.2242 4.25806 10.2639 4.21106 10.336C4.15215 10.4263 4.07153 10.5498 4.07153 10.7736C4.07153 10.8867 4.16325 10.9784 4.27637 10.9784C4.38948 10.9784 4.4812 10.8867 4.4812 10.7736C4.4812 10.6717 4.5071 10.6319 4.55411 10.5599C4.61302 10.4696 4.69373 10.346 4.69373 10.1222C4.69373 9.89851 4.61302 9.77489 4.55411 9.68467C4.5071 9.61256 4.4812 9.57286 4.4812 9.47094C4.4812 9.36902 4.5071 9.32922 4.55411 9.25711C4.61312 9.16689 4.69373 9.04327 4.69373 8.81943Z" fill="black"/>
<path d="M6.02186 8.81943C6.02186 8.5957 5.94115 8.47208 5.88234 8.38186C5.83523 8.30975 5.80932 8.26995 5.80932 8.16803C5.80932 8.05491 5.71761 7.9632 5.60449 7.9632C5.49137 7.9632 5.39966 8.05491 5.39966 8.16803C5.39966 8.39187 5.48027 8.51539 5.53918 8.6057C5.58629 8.67781 5.61219 8.71752 5.61219 8.81943C5.61219 8.92145 5.58629 8.96116 5.53918 9.03327C5.48027 9.12358 5.39966 9.2471 5.39966 9.47094C5.39966 9.69468 5.48027 9.8183 5.53918 9.90851C5.58629 9.98062 5.61219 10.0203 5.61219 10.1222C5.61219 10.2242 5.58629 10.2639 5.53918 10.336C5.48027 10.4263 5.39966 10.5498 5.39966 10.7736C5.39966 10.8867 5.49137 10.9784 5.60449 10.9784C5.71761 10.9784 5.80932 10.8867 5.80932 10.7736C5.80932 10.6717 5.83523 10.6319 5.88234 10.5599C5.94115 10.4696 6.02186 10.346 6.02186 10.1222C6.02186 9.89851 5.94115 9.77489 5.88234 9.68467C5.83523 9.61256 5.80932 9.57286 5.80932 9.47094C5.80932 9.36902 5.83523 9.32922 5.88234 9.25711C5.94115 9.16689 6.02186 9.04327 6.02186 8.81943Z" fill="black"/>
<path d="M3.36575 8.81943C3.36575 8.5957 3.28514 8.47208 3.22623 8.38186C3.17922 8.30975 3.15332 8.26995 3.15332 8.16803C3.15332 8.05491 3.0616 7.9632 2.94849 7.9632C2.83537 7.9632 2.74365 8.05491 2.74365 8.16803C2.74365 8.39187 2.82427 8.51539 2.88317 8.6057C2.93018 8.67781 2.95609 8.71752 2.95609 8.81943C2.95609 8.92145 2.93018 8.96116 2.88317 9.03327C2.82427 9.12358 2.74365 9.2471 2.74365 9.47094C2.74365 9.69468 2.82427 9.8183 2.88317 9.90851C2.93018 9.98062 2.95609 10.0203 2.95609 10.1222C2.95609 10.2242 2.93018 10.2639 2.88317 10.336C2.82427 10.4263 2.74365 10.5498 2.74365 10.7736C2.74365 10.8867 2.83537 10.9784 2.94849 10.9784C3.0616 10.9784 3.15332 10.8867 3.15332 10.7736C3.15332 10.6717 3.17922 10.6319 3.22623 10.5599C3.28514 10.4696 3.36575 10.346 3.36575 10.1222C3.36575 9.89851 3.28514 9.77489 3.22623 9.68467C3.17922 9.61256 3.15332 9.57286 3.15332 9.47094C3.15332 9.36902 3.17922 9.32922 3.22623 9.25711C3.28514 9.16689 3.36575 9.04327 3.36575 8.81943Z" fill="black"/>
<path d="M7.34988 8.81943C7.34988 8.5957 7.26927 8.47208 7.21036 8.38186C7.16335 8.30975 7.13745 8.26995 7.13745 8.16803C7.13745 8.05491 7.04573 7.9632 6.93262 7.9632C6.8194 7.9632 6.72778 8.05491 6.72778 8.16803C6.72778 8.39187 6.8084 8.51539 6.86721 8.6057C6.91431 8.67781 6.94022 8.71752 6.94022 8.81943C6.94022 8.92145 6.91431 8.96116 6.86721 9.03327C6.8084 9.12358 6.72778 9.2471 6.72778 9.47094C6.72778 9.69468 6.8084 9.8183 6.86721 9.90851C6.91431 9.98062 6.94022 10.0203 6.94022 10.1222C6.94022 10.2242 6.91431 10.2639 6.86721 10.336C6.8084 10.4263 6.72778 10.5498 6.72778 10.7736C6.72778 10.8867 6.8194 10.9784 6.93262 10.9784C7.04573 10.9784 7.13745 10.8867 7.13745 10.7736C7.13745 10.6717 7.16335 10.6319 7.21036 10.5599C7.26927 10.4696 7.34988 10.346 7.34988 10.1222C7.34988 9.89851 7.26927 9.77489 7.21036 9.68467C7.16335 9.61256 7.13745 9.57286 7.13745 9.47094C7.13745 9.36902 7.16335 9.32922 7.21036 9.25711C7.26927 9.16689 7.34988 9.04327 7.34988 8.81943Z" fill="black"/>
</g>
<defs>
<clipPath id="clip0_553_154">
<rect width="12" height="12" fill="white"/>
</clipPath>
</defs>
</svg>
