<svg width="12" height="12" viewBox="0 0 12 12" fill="none" xmlns="http://www.w3.org/2000/svg">
<g clip-path="url(#clip0_553_148)">
<path d="M0.753882 7.32665L1.36529 10.1345C1.49187 10.7148 2.01475 11.1417 2.60872 11.1417H2.64629V11.6966C2.64629 11.7918 2.72605 11.8815 2.82141 11.8815H4.33399C4.38909 11.8813 4.44082 11.8549 4.47328 11.8103L4.96235 11.1417H7.03797L7.52695 11.8103C7.55941 11.8549 7.61114 11.8813 7.66624 11.8815H9.17881C9.27418 11.8815 9.35394 11.7918 9.35394 11.6966V11.1417H9.39151C9.98548 11.1417 10.5084 10.7148 10.635 10.1345L11.2464 7.32954C11.7011 7.26702 12.0296 6.86292 11.9979 6.40506C11.9662 5.9472 11.5851 5.59223 11.1261 5.59309H9.34132C9.30568 5.36749 9.11235 5.20074 8.88404 5.19853H6.41636C6.18805 5.20074 5.99482 5.36749 5.95917 5.59309H1.95579V1.46997C1.95579 0.911549 2.40845 0.458894 2.96687 0.458894C3.5253 0.458894 3.97795 0.911549 3.97795 1.46997V2.06664H3.73645C3.36761 2.06722 3.06821 2.36498 3.06551 2.73373V3.00374H2.96523C2.91986 3.00326 2.87623 3.02108 2.84405 3.05316C2.81188 3.08524 2.79396 3.12887 2.79425 3.17425V3.74211C2.79338 3.83738 2.86996 3.91531 2.96523 3.91618H5.35249C5.44939 3.91599 5.52867 3.83892 5.53156 3.74211V3.17425C5.52839 3.07811 5.44872 3.0022 5.35249 3.00374H5.23564V2.73373C5.23708 2.55773 5.1683 2.38848 5.04462 2.26335C4.92102 2.13812 4.75264 2.06732 4.57664 2.06664H4.3232V1.46997C4.3232 0.720912 3.71593 0.113647 2.96687 0.113647C2.21781 0.113647 1.61055 0.720912 1.61055 1.46997V5.59309H0.874102C0.415282 5.59126 0.0338146 5.94585 0.00212198 6.40352C-0.0296669 6.86128 0.299204 7.26509 0.753882 7.32665ZM5.18632 3.57093H3.1395V3.34899H5.18632V3.57093ZM4.89039 2.73373V3.00374H3.41076V2.73373C3.41327 2.55552 3.55824 2.41228 3.73645 2.41189H4.57664C4.66103 2.41247 4.74175 2.44686 4.80061 2.50735C4.85957 2.56775 4.89193 2.64934 4.89039 2.73373ZM4.24642 11.5363H2.99153V11.1417H4.53445L4.24642 11.5363ZM9.00869 11.5363H7.7539L7.46578 11.1417H9.00869V11.5363ZM10.2977 10.0653C10.203 10.4905 9.82712 10.7938 9.39151 10.7965H2.60872C2.17311 10.7938 1.79723 10.4905 1.70254 10.0653L1.10905 7.34399H5.95079V9.05655C5.95079 9.15182 6.02969 9.21819 6.12515 9.21819H9.17525C9.27062 9.21819 9.35394 9.15182 9.35394 9.05655V7.34399H10.8912L10.2977 10.0653ZM6.29604 8.55235H9.00869V8.87294H6.29604V8.55235ZM11.6548 6.46854C11.6546 6.76061 11.4183 6.99759 11.1261 6.99874H9.35394V5.93834H11.1261C11.4183 5.9394 11.6546 6.17637 11.6548 6.46854ZM6.41636 5.54377H8.88404C8.9507 5.54329 9.00571 5.5956 9.00869 5.66207V8.20711H6.29604V5.66207C6.297 5.59637 6.35066 5.54358 6.41636 5.54377ZM0.874102 5.93834H5.95079V6.99874H0.874102C0.581258 6.99874 0.343901 6.76129 0.343901 6.46854C0.343901 6.1757 0.581258 5.93834 0.874102 5.93834Z" fill="black"/>
</g>
<defs>
<clipPath id="clip0_553_148">
<rect width="12" height="12" fill="white"/>
</clipPath>
</defs>
</svg>
