<svg width="12" height="12" viewBox="0 0 12 12" fill="none" xmlns="http://www.w3.org/2000/svg">
<g clip-path="url(#clip0_553_160)">
<path d="M11.4867 10.3967C11.5033 10.3567 11.5033 10.31 11.4867 10.27C11.4767 10.25 11.4667 10.23 11.45 10.2167L10.45 9.21667C10.3833 9.15001 10.28 9.15001 10.2133 9.21667C10.1467 9.28334 10.1467 9.38667 10.2133 9.45334L10.93 10.17H9.16667V3.00001C9.16667 2.90667 9.09333 2.83334 9 2.83334H1.83333V1.07001L2.55 1.78667C2.58333 1.82001 2.62667 1.83667 2.66667 1.83667C2.70667 1.83667 2.75333 1.82001 2.78333 1.78667C2.85 1.72001 2.85 1.61667 2.78333 1.55001L1.78333 0.550006C1.78333 0.550006 1.75 0.523339 1.73 0.513339C1.69 0.496673 1.64333 0.496673 1.60333 0.513339C1.58333 0.523339 1.56333 0.533339 1.55 0.550006L0.55 1.55001C0.483333 1.61667 0.483333 1.72001 0.55 1.78667C0.616667 1.85334 0.72 1.85334 0.786667 1.78667L1.50333 1.07001V10.3333C1.50333 10.4267 1.57667 10.5 1.67 10.5H10.9333L10.2167 11.2167C10.15 11.2833 10.15 11.3867 10.2167 11.4533C10.25 11.4867 10.2933 11.5033 10.3333 11.5033C10.3733 11.5033 10.42 11.4867 10.45 11.4533L11.45 10.4533C11.45 10.4533 11.4767 10.42 11.4867 10.4V10.3967ZM3.96 10.1667L8.83333 5.29334V8.26667L6.93 10.17H3.95667L3.96 10.1667ZM1.83333 5.18001L3.84667 3.16667H6.93333L1.83667 8.26334V5.17667L1.83333 5.18001ZM3.37333 3.16667L1.83333 4.70667V3.16667H3.37333ZM1.83333 8.73667L7.40333 3.16667H8.83333V4.82001L3.48667 10.1667H1.83333V8.73667ZM7.40333 10.1667L8.83333 8.73667V10.1667H7.40333ZM8.83333 1.66667C8.83333 1.57334 8.90667 1.50001 9 1.50001H10C10.2767 1.50001 10.5 1.72334 10.5 2.00001V3.00001C10.5 3.09334 10.4267 3.16667 10.3333 3.16667C10.24 3.16667 10.1667 3.09334 10.1667 3.00001V2.00001C10.1667 1.90667 10.0933 1.83334 10 1.83334H9C8.90667 1.83334 8.83333 1.76001 8.83333 1.66667ZM6.16667 1.66667C6.16667 1.57334 6.24 1.50001 6.33333 1.50001H7.66667C7.76 1.50001 7.83333 1.57667 7.83333 1.66667C7.83333 1.75667 7.76 1.83334 7.66667 1.83334H6.33333C6.24 1.83334 6.16667 1.75667 6.16667 1.66667ZM3.5 1.66667C3.5 1.57334 3.57333 1.50001 3.66667 1.50001H5C5.09333 1.50001 5.16667 1.57667 5.16667 1.66667C5.16667 1.75667 5.09333 1.83334 5 1.83334H3.66667C3.57333 1.83334 3.5 1.75667 3.5 1.66667ZM10.5 7.00001V8.33334C10.5 8.42667 10.4233 8.50001 10.3333 8.50001C10.2433 8.50001 10.1667 8.42667 10.1667 8.33334V7.00001C10.1667 6.90667 10.2433 6.83334 10.3333 6.83334C10.4233 6.83334 10.5 6.90667 10.5 7.00001ZM10.5 4.33334V5.66667C10.5 5.76001 10.4233 5.83334 10.3333 5.83334C10.2433 5.83334 10.1667 5.76001 10.1667 5.66667V4.33334C10.1667 4.24001 10.2433 4.16667 10.3333 4.16667C10.4233 4.16667 10.5 4.24001 10.5 4.33334Z" fill="black"/>
</g>
<defs>
<clipPath id="clip0_553_160">
<rect width="12" height="12" fill="white"/>
</clipPath>
</defs>
</svg>
