<svg width="14" height="14" viewBox="0 0 14 14" fill="none" xmlns="http://www.w3.org/2000/svg">
<path d="M13.5625 9.40625H13.3438V7.65625C13.3434 7.42428 13.2512 7.2019 13.0871 7.03787C12.9231 6.87384 12.7007 6.78155 12.4688 6.78125V3.0625C12.4684 2.83053 12.3762 2.60815 12.2121 2.44412C12.0481 2.28009 11.8257 2.1878 11.5938 2.1875H2.40625C2.17428 2.1878 1.9519 2.28009 1.78787 2.44412C1.62384 2.60815 1.53155 2.83053 1.53125 3.0625V6.78125C1.29928 6.78155 1.0769 6.87384 0.912867 7.03787C0.748839 7.2019 0.656554 7.42428 0.65625 7.65625V9.40625H0.4375C0.379484 9.40625 0.323844 9.4293 0.28282 9.47032C0.241797 9.51134 0.21875 9.56698 0.21875 9.625V10.5C0.21875 10.558 0.241797 10.6137 0.28282 10.6547C0.323844 10.6957 0.379484 10.7188 0.4375 10.7188H0.65625V11.5938C0.65625 11.6518 0.679297 11.7074 0.72032 11.7484C0.761344 11.7895 0.816984 11.8125 0.875 11.8125H1.53125C1.58181 11.8125 1.63081 11.795 1.6699 11.763C1.70899 11.7309 1.73575 11.6863 1.74563 11.6367L1.92937 10.7188H12.0706L12.2544 11.6367C12.2642 11.6863 12.291 11.7309 12.3301 11.763C12.3692 11.795 12.4182 11.8125 12.4688 11.8125H13.125C13.183 11.8125 13.2387 11.7895 13.2797 11.7484C13.3207 11.7074 13.3438 11.6518 13.3438 11.5938V10.7188H13.5625C13.6205 10.7188 13.6762 10.6957 13.7172 10.6547C13.7582 10.6137 13.7812 10.558 13.7812 10.5V9.625C13.7812 9.56698 13.7582 9.51134 13.7172 9.47032C13.6762 9.4293 13.6205 9.40625 13.5625 9.40625ZM1.96875 3.0625C1.9689 2.94651 2.01504 2.83532 2.09706 2.75331C2.17907 2.67129 2.29026 2.62515 2.40625 2.625H11.5938C11.7097 2.62515 11.8209 2.67129 11.9029 2.75331C11.985 2.83532 12.0311 2.94651 12.0312 3.0625V6.78125H11.5938V5.90625C11.5934 5.67428 11.5012 5.4519 11.3371 5.28787C11.1731 5.12384 10.9507 5.03155 10.7188 5.03125H8.09375C7.86178 5.03155 7.6394 5.12384 7.47537 5.28787C7.31134 5.4519 7.21905 5.67428 7.21875 5.90625V6.78125H6.78125V5.90625C6.78095 5.67428 6.68866 5.4519 6.52463 5.28787C6.3606 5.12384 6.13822 5.03155 5.90625 5.03125H3.28125C3.04928 5.03155 2.8269 5.12384 2.66287 5.28787C2.49884 5.4519 2.40655 5.67428 2.40625 5.90625V6.78125H1.96875V3.0625ZM11.1562 5.90625V6.78125H7.65625V5.90625C7.6564 5.79026 7.70254 5.67907 7.78456 5.59706C7.86657 5.51504 7.97776 5.4689 8.09375 5.46875H10.7188C10.8347 5.4689 10.9459 5.51504 11.0279 5.59706C11.11 5.67907 11.1561 5.79026 11.1562 5.90625ZM6.34375 5.90625V6.78125H2.84375V5.90625C2.8439 5.79026 2.89004 5.67907 2.97206 5.59706C3.05407 5.51504 3.16526 5.4689 3.28125 5.46875H5.90625C6.02224 5.4689 6.13343 5.51504 6.21544 5.59706C6.29746 5.67907 6.3436 5.79026 6.34375 5.90625ZM1.09375 7.65625C1.0939 7.54026 1.14004 7.42907 1.22206 7.34706C1.30407 7.26504 1.41526 7.2189 1.53125 7.21875H12.4688C12.5847 7.2189 12.6959 7.26504 12.7779 7.34706C12.86 7.42907 12.9061 7.54026 12.9062 7.65625V9.40625H1.09375V7.65625ZM1.35187 11.375H1.09375V10.7188H1.48313L1.35187 11.375ZM12.9062 11.375H12.6481L12.5169 10.7188H12.9062V11.375ZM13.3438 10.2812H0.65625V9.84375H13.3438V10.2812Z" fill="black"/>
</svg>
