<svg width="20" height="20" viewBox="0 0 20 20" fill="none" xmlns="http://www.w3.org/2000/svg">
<g clip-path="url(#clip0_606_1404)">
<path d="M1.25647 12.2111L2.27548 16.8908C2.48644 17.858 3.35791 18.5695 4.34786 18.5695H4.41048V19.4943C4.41048 19.6531 4.54341 19.8026 4.70236 19.8026H7.22331C7.31515 19.8023 7.40136 19.7583 7.45547 19.6839L8.27058 18.5695H11.73L12.5449 19.6839C12.599 19.7583 12.6852 19.8023 12.7771 19.8026H15.298C15.457 19.8026 15.5899 19.6531 15.5899 19.4943V18.5695H15.6525C16.6425 18.5695 17.5139 17.858 17.7251 16.8908L18.7441 12.2159C19.5019 12.1117 20.0493 11.4382 19.9965 10.6751C19.9437 9.91205 19.3086 9.32042 18.5435 9.32186H15.5689C15.5095 8.94586 15.1872 8.66794 14.8067 8.66425H10.6939C10.3134 8.66794 9.99136 8.94586 9.93196 9.32186H3.25965V2.45C3.25965 1.51929 4.01408 0.764865 4.94479 0.764865C5.8755 0.764865 6.62992 1.51929 6.62992 2.45V3.44445H6.22742C5.61268 3.44541 5.11369 3.94167 5.10919 4.55626V5.00628H4.94206C4.86644 5.00547 4.79371 5.03518 4.74009 5.08864C4.68646 5.1421 4.6566 5.21483 4.65708 5.29045V6.23689C4.65564 6.39568 4.78327 6.52556 4.94206 6.52701H8.92081C9.08232 6.52669 9.21446 6.39825 9.21927 6.23689V5.29045C9.21398 5.13022 9.0812 5.00371 8.92081 5.00628H8.72606V4.55626C8.72847 4.26293 8.61384 3.98084 8.40769 3.77229C8.20171 3.56357 7.92107 3.44557 7.62774 3.44445H7.20533V2.45C7.20533 1.20156 6.19322 0.189453 4.94479 0.189453C3.69635 0.189453 2.68424 1.20156 2.68424 2.45V9.32186H1.45684C0.692136 9.31881 0.0563576 9.9098 0.00353663 10.6726C-0.0494449 11.4355 0.498673 12.1085 1.25647 12.2111ZM8.64386 5.9516H5.23249V5.58169H8.64386V5.9516ZM8.15065 4.55626V5.00628H5.6846V4.55626C5.68878 4.25924 5.9304 4.0205 6.22742 4.01986H7.62774C7.76838 4.02082 7.90292 4.07814 8.00102 4.17896C8.09928 4.27963 8.15322 4.41561 8.15065 4.55626ZM7.07737 19.2272H4.98589V18.5695H7.55742L7.07737 19.2272ZM15.0145 19.2272H12.9232L12.443 18.5695H15.0145V19.2272ZM17.1628 16.7756C17.005 17.4842 16.3785 17.9896 15.6525 17.9941H4.34786C3.62185 17.9896 2.99539 17.4842 2.83757 16.7756L1.84842 12.24H9.91799V15.0943C9.91799 15.2531 10.0495 15.3637 10.2086 15.3637H15.2921C15.451 15.3637 15.5899 15.2531 15.5899 15.0943V12.24H18.152L17.1628 16.7756ZM10.4934 14.254H15.0145V14.7883H10.4934V14.254ZM19.4246 10.7809C19.4243 11.2677 19.0305 11.6627 18.5435 11.6646H15.5899V9.89728H18.5435C19.0305 9.89904 19.4243 10.294 19.4246 10.7809ZM10.6939 9.23966H14.8067C14.9178 9.23886 15.0095 9.32604 15.0145 9.43682V13.6786H10.4934V9.43682C10.495 9.32732 10.5844 9.23934 10.6939 9.23966ZM1.45684 9.89728H9.91799V11.6646H1.45684C0.968764 11.6646 0.573168 11.2689 0.573168 10.7809C0.573168 10.2929 0.968764 9.89728 1.45684 9.89728Z" fill="#2271B1"/>
</g>
<defs>
<clipPath id="clip0_606_1404">
<rect width="20" height="20" fill="white"/>
</clipPath>
</defs>
</svg>
