<svg width="17" height="17" viewBox="0 0 17 17" fill="none" xmlns="http://www.w3.org/2000/svg">
<path d="M13.8125 2.65625H3.1875C2.3073 2.65625 1.59375 3.3698 1.59375 4.25V12.75C1.59375 13.6302 2.3073 14.3438 3.1875 14.3438H13.8125C14.6927 14.3438 15.4062 13.6302 15.4062 12.75V4.25C15.4062 3.3698 14.6927 2.65625 13.8125 2.65625Z" stroke="#111111" stroke-linejoin="round"/>
<path d="M11.1562 6.90625C11.7431 6.90625 12.2188 6.43055 12.2188 5.84375C12.2188 5.25695 11.7431 4.78125 11.1562 4.78125C10.5694 4.78125 10.0938 5.25695 10.0938 5.84375C10.0938 6.43055 10.5694 6.90625 11.1562 6.90625Z" stroke="#111111" stroke-miterlimit="10"/>
<path d="M10.0938 11.1492L7.08355 8.14461C6.89201 7.95311 6.63455 7.84199 6.36381 7.83396C6.09307 7.82594 5.82949 7.92162 5.62693 8.10145L1.59375 11.6874M7.4375 14.3436L11.5328 10.2484C11.7201 10.0607 11.9707 9.94984 12.2356 9.93755C12.5004 9.92526 12.7603 10.0124 12.9642 10.182L15.4062 12.2186" stroke="#111111" stroke-linecap="round" stroke-linejoin="round"/>
</svg>
