<svg width="20" height="20" viewBox="0 0 20 20" fill="none" xmlns="http://www.w3.org/2000/svg">
<g clip-path="url(#clip0_606_1408)">
<path d="M12.7139 0C10.1694 0.00300049 8.10077 2.05217 8.07377 4.59641C5.37283 4.74027 3.20298 6.87511 3.01512 9.57322C2.82692 9.57372 2.67456 9.72641 2.67456 9.91461V11.5789C2.67456 11.7674 2.82742 11.9203 3.01595 11.9203H13.8124C14.0009 11.9203 14.1538 11.7674 14.1538 11.5789V9.91461C14.1538 9.72608 14.0009 9.57322 13.8124 9.57322H13.7262C13.5408 6.90879 11.4208 4.78811 8.75655 4.60175C8.77905 2.42473 10.5558 0.674609 12.7332 0.685278C14.9104 0.69578 16.6702 2.4629 16.6715 4.64025V19.6587C16.6715 19.8472 16.8244 20.0001 17.0129 20.0001C17.2014 20.0001 17.3543 19.8472 17.3543 19.6587V4.64042C17.3514 2.07884 15.2754 0.00283379 12.7139 0ZM13.471 11.2375H3.35734V10.256H13.471V11.2375ZM13.0416 9.57322H3.69989C3.89976 7.14199 5.93126 5.27069 8.37065 5.27069C10.81 5.27069 12.8415 7.14199 13.0416 9.57322Z" fill="#2271B1"/>
<path d="M7.82289 14.699C7.82289 14.3261 7.68837 14.1201 7.59019 13.9698C7.51184 13.8496 7.46867 13.7832 7.46867 13.6134C7.46867 13.4248 7.31581 13.272 7.12728 13.272C6.93875 13.272 6.78589 13.4248 6.78589 13.6134C6.78589 13.9864 6.92024 14.1923 7.01843 14.3428C7.09677 14.463 7.14011 14.5292 7.14011 14.699C7.14011 14.8691 7.09677 14.9352 7.01843 15.0554C6.92024 15.206 6.78589 15.4118 6.78589 15.7849C6.78589 16.1578 6.92024 16.3638 7.01843 16.5142C7.09677 16.6344 7.14011 16.7005 7.14011 16.8704C7.14011 17.0403 7.09677 17.1064 7.01843 17.2266C6.92024 17.3771 6.78589 17.583 6.78589 17.9559C6.78589 18.1444 6.93875 18.2973 7.12728 18.2973C7.31581 18.2973 7.46867 18.1444 7.46867 17.9559C7.46867 17.7862 7.51184 17.7199 7.59019 17.5998C7.68837 17.4493 7.82289 17.2433 7.82289 16.8704C7.82289 16.4975 7.68837 16.2915 7.59019 16.1411C7.51184 16.0209 7.46867 15.9547 7.46867 15.7849C7.46867 15.615 7.51184 15.5487 7.59019 15.4285C7.68854 15.2781 7.82289 15.0721 7.82289 14.699Z" fill="#2271B1"/>
<path d="M10.0363 14.699C10.0363 14.3261 9.90175 14.1201 9.80373 13.9698C9.72522 13.8496 9.68204 13.7832 9.68204 13.6134C9.68204 13.4248 9.52919 13.272 9.34066 13.272C9.15213 13.272 8.99927 13.4248 8.99927 13.6134C8.99927 13.9864 9.13362 14.1923 9.23181 14.3428C9.31032 14.463 9.35349 14.5292 9.35349 14.699C9.35349 14.8691 9.31032 14.9352 9.23181 15.0554C9.13362 15.206 8.99927 15.4118 8.99927 15.7849C8.99927 16.1578 9.13362 16.3638 9.23181 16.5142C9.31032 16.6344 9.35349 16.7005 9.35349 16.8704C9.35349 17.0403 9.31032 17.1064 9.23181 17.2266C9.13362 17.3771 8.99927 17.583 8.99927 17.9559C8.99927 18.1444 9.15213 18.2973 9.34066 18.2973C9.52919 18.2973 9.68204 18.1444 9.68204 17.9559C9.68204 17.7862 9.72522 17.7199 9.80373 17.5998C9.90175 17.4493 10.0363 17.2433 10.0363 16.8704C10.0363 16.4975 9.90175 16.2915 9.80373 16.1411C9.72522 16.0209 9.68204 15.9547 9.68204 15.7849C9.68204 15.615 9.72522 15.5487 9.80373 15.4285C9.90175 15.2781 10.0363 15.0721 10.0363 14.699Z" fill="#2271B1"/>
<path d="M5.60934 14.699C5.60934 14.3261 5.47499 14.1201 5.37681 13.9698C5.29846 13.8496 5.25529 13.7832 5.25529 13.6134C5.25529 13.4248 5.10243 13.272 4.9139 13.272C4.72537 13.272 4.57251 13.4248 4.57251 13.6134C4.57251 13.9864 4.70686 14.1923 4.80505 14.3428C4.88339 14.463 4.92657 14.5292 4.92657 14.699C4.92657 14.8691 4.88339 14.9352 4.80505 15.0554C4.70686 15.206 4.57251 15.4118 4.57251 15.7849C4.57251 16.1578 4.70686 16.3638 4.80505 16.5142C4.88339 16.6344 4.92657 16.7005 4.92657 16.8704C4.92657 17.0403 4.88339 17.1064 4.80505 17.2266C4.70686 17.3771 4.57251 17.583 4.57251 17.9559C4.57251 18.1444 4.72537 18.2973 4.9139 18.2973C5.10243 18.2973 5.25529 18.1444 5.25529 17.9559C5.25529 17.7862 5.29846 17.7199 5.37681 17.5998C5.47499 17.4493 5.60934 17.2433 5.60934 16.8704C5.60934 16.4975 5.47499 16.2915 5.37681 16.1411C5.29846 16.0209 5.25529 15.9547 5.25529 15.7849C5.25529 15.615 5.29846 15.5487 5.37681 15.4285C5.47499 15.2781 5.60934 15.0721 5.60934 14.699Z" fill="#2271B1"/>
<path d="M12.2497 14.699C12.2497 14.3261 12.1154 14.1201 12.0172 13.9698C11.9388 13.8496 11.8957 13.7832 11.8957 13.6134C11.8957 13.4248 11.7428 13.272 11.5543 13.272C11.3656 13.272 11.2129 13.4248 11.2129 13.6134C11.2129 13.9864 11.3472 14.1923 11.4453 14.3428C11.5238 14.463 11.5669 14.5292 11.5669 14.699C11.5669 14.8691 11.5238 14.9352 11.4453 15.0554C11.3472 15.206 11.2129 15.4118 11.2129 15.7849C11.2129 16.1578 11.3472 16.3638 11.4453 16.5142C11.5238 16.6344 11.5669 16.7005 11.5669 16.8704C11.5669 17.0403 11.5238 17.1064 11.4453 17.2266C11.3472 17.3771 11.2129 17.583 11.2129 17.9559C11.2129 18.1444 11.3656 18.2973 11.5543 18.2973C11.7428 18.2973 11.8957 18.1444 11.8957 17.9559C11.8957 17.7862 11.9388 17.7199 12.0172 17.5998C12.1154 17.4493 12.2497 17.2433 12.2497 16.8704C12.2497 16.4975 12.1154 16.2915 12.0172 16.1411C11.9388 16.0209 11.8957 15.9547 11.8957 15.7849C11.8957 15.615 11.9388 15.5487 12.0172 15.4285C12.1154 15.2781 12.2497 15.0721 12.2497 14.699Z" fill="#2271B1"/>
</g>
<defs>
<clipPath id="clip0_606_1408">
<rect width="20" height="20" fill="white"/>
</clipPath>
</defs>
</svg>
