<?xml version="1.0" encoding="utf-8"?>
<!-- Generator: Adobe Illustrator 27.5.0, SVG Export Plug-In . SVG Version: 6.00 Build 0)  -->
<svg version="1.1" xmlns="http://www.w3.org/2000/svg" xmlns:xlink="http://www.w3.org/1999/xlink" x="0px" y="0px"
	 viewBox="0 0 2000 2000" style="enable-background:new 0 0 2000 2000;" xml:space="preserve">
<g id="Background">
	<rect style="fill:#FFFFFF;" width="2000" height="2000"/>
</g>
<g id="Profile">
	<g>
		<path style="fill:#383838;" d="M1782.636,1655.764c0,62.043-50.523,114.38-114.743,114.38H331.977
			c-69.662,0-123.179-61.68-113.473-130.616c39.185-277.379,265.587-487.544,540.608-509.767
			c65.489,57.145,140.866,95.785,221.594,102.135l23.765,157.737l23.765-157.647c80.365-6.44,155.56-44.627,220.778-101.5
			c271.302,25.76,493.622,234.475,532.444,509.042C1782.183,1644.969,1782.636,1650.412,1782.636,1655.764z"/>
		<path style="fill:#383838;" d="M1371.376,596.767c0,202.639-164.271,498.998-366.91,498.998s-366.91-296.359-366.91-498.998
			s164.271-366.91,366.91-366.91S1371.376,394.128,1371.376,596.767z"/>
	</g>
</g>
</svg>
