<svg width="20" height="20" viewBox="0 0 20 20" fill="none" xmlns="http://www.w3.org/2000/svg">
<path d="M16.1246 13.6484C15.5565 13.6622 14.9934 13.5384 14.4835 13.2876C14.0418 13.0683 13.5532 12.9602 13.0603 12.9727C12.5675 12.9602 12.0792 13.0683 11.6378 13.2876C11.1283 13.5384 10.5656 13.6622 9.99782 13.6484C9.42988 13.6622 8.86703 13.5384 8.35728 13.2876C7.9158 13.0683 7.42739 12.9602 6.93458 12.9727C6.4422 12.9608 5.95437 13.0694 5.5135 13.289C5.00342 13.5395 4.44026 13.6628 3.87215 13.6484C3.30466 13.6626 2.74217 13.5393 2.23269 13.289C1.79161 13.0692 1.30346 12.9606 0.810798 12.9727C0.739117 12.9727 0.670373 12.9443 0.619688 12.8936C0.569002 12.8429 0.540527 12.7741 0.540527 12.7025C0.540527 12.6308 0.569002 12.562 0.619688 12.5114C0.670373 12.4607 0.739117 12.4322 0.810798 12.4322C1.37868 12.4188 1.94138 12.543 2.4508 12.7944C2.89195 13.0131 3.37989 13.1208 3.87215 13.1079C4.36478 13.1204 4.853 13.0123 5.29431 12.793C5.80395 12.5422 6.36672 12.4184 6.93458 12.4322C7.50253 12.4184 8.06538 12.5422 8.57512 12.793C9.0166 13.0124 9.50502 13.1204 9.99782 13.1079C10.4905 13.1204 10.9787 13.0123 11.42 12.793C11.9296 12.5422 12.4924 12.4184 13.0603 12.4322C13.6289 12.4186 14.1925 12.5429 14.7027 12.7944C15.1485 13.0018 15.6342 13.1092 16.1259 13.1092C16.6176 13.1092 17.1034 13.0018 17.5492 12.7944C18.0587 12.5432 18.6213 12.419 19.1892 12.4322C19.2609 12.4322 19.3296 12.4607 19.3803 12.5114C19.431 12.562 19.4594 12.6308 19.4594 12.7025C19.4594 12.7741 19.431 12.8429 19.3803 12.8936C19.3296 12.9443 19.2609 12.9727 19.1892 12.9727C18.6962 12.9602 18.2076 13.0683 17.7659 13.2876C17.2559 13.5385 16.6928 13.6622 16.1246 13.6484Z" fill="#2271B1"/>
<path d="M16.1246 15.811C15.5565 15.8248 14.9934 15.701 14.4835 15.4502C14.0418 15.2309 13.5532 15.1228 13.0603 15.1353C12.5675 15.1228 12.0792 15.2309 11.6378 15.4502C11.1283 15.701 10.5656 15.8248 9.99782 15.811C9.42988 15.8248 8.86703 15.701 8.35728 15.4502C7.9158 15.2308 7.42739 15.1228 6.93458 15.1353C6.4422 15.1234 5.95437 15.232 5.5135 15.4515C5.00342 15.7021 4.44026 15.8254 3.87215 15.811C3.30466 15.8252 2.74217 15.7019 2.23269 15.4515C1.79161 15.2318 1.30346 15.1232 0.810798 15.1353C0.739117 15.1353 0.670373 15.1069 0.619688 15.0562C0.569002 15.0055 0.540527 14.9367 0.540527 14.8651C0.540527 14.7934 0.569002 14.7246 0.619688 14.674C0.670373 14.6233 0.739117 14.5948 0.810798 14.5948C1.37868 14.5814 1.94138 14.7056 2.4508 14.957C2.89195 15.1757 3.37989 15.2834 3.87215 15.2705C4.36478 15.283 4.853 15.1749 5.29431 14.9556C5.80395 14.7048 6.36672 14.581 6.93458 14.5948C7.50253 14.581 8.06538 14.7048 8.57512 14.9556C9.0166 15.175 9.50502 15.283 9.99782 15.2705C10.4905 15.283 10.9787 15.1749 11.42 14.9556C11.9296 14.7048 12.4924 14.581 13.0603 14.5948C13.6289 14.5812 14.1925 14.7055 14.7027 14.957C15.1485 15.1644 15.6342 15.2718 16.1259 15.2718C16.6176 15.2718 17.1034 15.1644 17.5492 14.957C18.0587 14.7058 18.6213 14.5816 19.1892 14.5948C19.2609 14.5948 19.3296 14.6233 19.3803 14.674C19.431 14.7246 19.4594 14.7934 19.4594 14.8651C19.4594 14.9367 19.431 15.0055 19.3803 15.0562C19.3296 15.1069 19.2609 15.1353 19.1892 15.1353C18.6962 15.1228 18.2076 15.2309 17.7659 15.4502C17.2559 15.7011 16.6928 15.8248 16.1246 15.811Z" fill="#2271B1"/>
<path d="M16.1246 17.9731C15.5565 17.9869 14.9934 17.8631 14.4835 17.6123C14.0418 17.393 13.5532 17.2849 13.0603 17.2974C12.5675 17.2849 12.0792 17.393 11.6378 17.6123C11.1283 17.8631 10.5656 17.9869 9.99782 17.9731C9.42988 17.9869 8.86703 17.8631 8.35728 17.6123C7.9158 17.393 7.42739 17.2849 6.93458 17.2974C6.4422 17.2855 5.95437 17.3941 5.5135 17.6137C5.00342 17.8642 4.44026 17.9875 3.87215 17.9731C3.30466 17.9873 2.74217 17.864 2.23269 17.6137C1.79161 17.3939 1.30346 17.2853 0.810798 17.2974C0.739117 17.2974 0.670373 17.269 0.619688 17.2183C0.569002 17.1676 0.540527 17.0989 0.540527 17.0272C0.540527 16.9555 0.569002 16.8867 0.619688 16.8361C0.670373 16.7854 0.739117 16.7569 0.810798 16.7569C1.37868 16.7435 1.94138 16.8677 2.4508 17.1191C2.89195 17.3379 3.37989 17.4455 3.87215 17.4326C4.36478 17.4451 4.853 17.337 5.29431 17.1177C5.80395 16.8669 6.36672 16.7431 6.93458 16.7569C7.50253 16.7431 8.06538 16.8669 8.57512 17.1177C9.0166 17.3371 9.50502 17.4452 9.99782 17.4326C10.4905 17.4451 10.9787 17.337 11.42 17.1177C11.9296 16.8669 12.4924 16.7431 13.0603 16.7569C13.6289 16.7433 14.1925 16.8676 14.7027 17.1191C15.1485 17.3265 15.6342 17.4339 16.1259 17.4339C16.6176 17.4339 17.1034 17.3265 17.5492 17.1191C18.0587 16.8679 18.6213 16.7437 19.1892 16.7569C19.2609 16.7569 19.3296 16.7854 19.3803 16.8361C19.431 16.8867 19.4594 16.9555 19.4594 17.0272C19.4594 17.0989 19.431 17.1676 19.3803 17.2183C19.3296 17.269 19.2609 17.2974 19.1892 17.2974C18.6962 17.2849 18.2076 17.393 17.7659 17.6123C17.2559 17.8632 16.6928 17.9869 16.1246 17.9731Z" fill="#2271B1"/>
<path d="M10 13.6485C9.92833 13.6485 9.85958 13.62 9.8089 13.5693C9.75821 13.5186 9.72974 13.4499 9.72974 13.3782V3.78361C9.72974 3.31769 9.91482 2.87085 10.2443 2.5414C10.5737 2.21194 11.0206 2.02686 11.4865 2.02686C11.9524 2.02686 12.3993 2.21194 12.7287 2.5414C13.0582 2.87085 13.2433 3.31769 13.2433 3.78361C13.2433 3.85529 13.2148 3.92404 13.1641 3.97472C13.1134 4.02541 13.0447 4.05388 12.973 4.05388C12.9013 4.05388 12.8326 4.02541 12.7819 3.97472C12.7312 3.92404 12.7027 3.85529 12.7027 3.78361C12.7027 3.46105 12.5746 3.1517 12.3465 2.92362C12.1184 2.69553 11.8091 2.5674 11.4865 2.5674C11.1639 2.5674 10.8546 2.69553 10.6265 2.92362C10.3984 3.1517 10.2703 3.46105 10.2703 3.78361V13.3782C10.2703 13.4499 10.2418 13.5186 10.1911 13.5693C10.1404 13.62 10.0717 13.6485 10 13.6485Z" fill="#2271B1"/>
<path d="M16.0811 13.6485C16.0094 13.6485 15.9406 13.62 15.89 13.5693C15.8393 13.5186 15.8108 13.4499 15.8108 13.3782V3.78361C15.8108 3.31769 15.9959 2.87085 16.3253 2.5414C16.6548 2.21194 17.1016 2.02686 17.5675 2.02686C18.0335 2.02686 18.4803 2.21194 18.8098 2.5414C19.1392 2.87085 19.3243 3.31769 19.3243 3.78361C19.3243 3.85529 19.2958 3.92404 19.2451 3.97472C19.1945 4.02541 19.1257 4.05388 19.054 4.05388C18.9824 4.05388 18.9136 4.02541 18.8629 3.97472C18.8122 3.92404 18.7838 3.85529 18.7838 3.78361C18.7838 3.46105 18.6556 3.1517 18.4275 2.92362C18.1995 2.69553 17.8901 2.5674 17.5675 2.5674C17.245 2.5674 16.9356 2.69553 16.7076 2.92362C16.4795 3.1517 16.3513 3.46105 16.3513 3.78361V13.3782C16.3513 13.4499 16.3229 13.5186 16.2722 13.5693C16.2215 13.62 16.1527 13.6485 16.0811 13.6485Z" fill="#2271B1"/>
<path d="M16.0811 6.55519H10C9.92833 6.55519 9.85958 6.52671 9.8089 6.47603C9.75821 6.42534 9.72974 6.3566 9.72974 6.28492C9.72974 6.21324 9.75821 6.14449 9.8089 6.09381C9.85958 6.04312 9.92833 6.01465 10 6.01465H16.0811C16.1528 6.01465 16.2215 6.04312 16.2722 6.09381C16.3229 6.14449 16.3514 6.21324 16.3514 6.28492C16.3514 6.3566 16.3229 6.42534 16.2722 6.47603C16.2215 6.52671 16.1528 6.55519 16.0811 6.55519Z" fill="#2271B1"/>
<path d="M16.0811 8.71779H10C9.92833 8.71779 9.85958 8.68931 9.8089 8.63863C9.75821 8.58794 9.72974 8.5192 9.72974 8.44752C9.72974 8.37584 9.75821 8.30709 9.8089 8.25641C9.85958 8.20572 9.92833 8.17725 10 8.17725H16.0811C16.1528 8.17725 16.2215 8.20572 16.2722 8.25641C16.3229 8.30709 16.3514 8.37584 16.3514 8.44752C16.3514 8.5192 16.3229 8.58794 16.2722 8.63863C16.2215 8.68931 16.1528 8.71779 16.0811 8.71779Z" fill="#2271B1"/>
<path d="M16.0811 10.8799H10C9.92833 10.8799 9.85958 10.8514 9.8089 10.8007C9.75821 10.7501 9.72974 10.6813 9.72974 10.6096C9.72974 10.5379 9.75821 10.4692 9.8089 10.4185C9.85958 10.3678 9.92833 10.3394 10 10.3394H16.0811C16.1528 10.3394 16.2215 10.3678 16.2722 10.4185C16.3229 10.4692 16.3514 10.5379 16.3514 10.6096C16.3514 10.6813 16.3229 10.7501 16.2722 10.8007C16.2215 10.8514 16.1528 10.8799 16.0811 10.8799Z" fill="#2271B1"/>
</svg>
