<svg width="20" height="20" viewBox="0 0 20 20" fill="none" xmlns="http://www.w3.org/2000/svg">
<g clip-path="url(#clip0_606_1455)">
<path d="M4.89096 12.4009H3.77104C3.49104 12.4009 3.26318 12.6287 3.26318 12.9087V14.8869C3.26318 15.1669 3.491 15.3947 3.77104 15.3947H4.89092C5.17092 15.3947 5.39877 15.1669 5.39877 14.8869V12.9087C5.39877 12.6287 5.17096 12.4009 4.89096 12.4009ZM4.8128 14.8087H3.84916V12.9868H4.8128V14.8087Z" fill="#2271B1"/>
<path d="M17.9324 10.4661C17.8169 10.3529 17.6314 10.3546 17.5181 10.4702L15.4214 12.6085L14.6991 11.8528C14.5873 11.7359 14.4018 11.7316 14.2849 11.8435C14.1679 11.9553 14.1637 12.1407 14.2755 12.2577L15.2069 13.2321C15.3213 13.3518 15.512 13.353 15.6279 13.2348L17.9365 10.8804C18.0497 10.7648 18.0479 10.5794 17.9324 10.4661Z" fill="#2271B1"/>
<path d="M19.707 10.9014C19.8689 10.9014 20 10.7703 20 10.6084V8.41671C20 7.99949 19.5501 7.73636 19.1862 7.94175C18.4696 8.34652 17.7941 8.36035 17.1785 7.98273C16.6876 7.68167 16.4127 7.24105 16.4018 7.22327C16.3019 7.05987 16.128 6.96237 15.9364 6.96237C15.9363 6.96237 15.9362 6.96237 15.9361 6.96237C15.8677 6.96241 15.8016 6.97511 15.7403 6.99847L13.621 3.7919C13.5347 3.626 13.3977 3.49686 13.2327 3.41991V1.92725H13.2628C13.4247 1.92725 13.5558 1.79608 13.5558 1.63428C13.5558 1.47248 13.4247 1.34131 13.2628 1.34131C12.9529 1.34131 10.479 1.34131 10.2066 1.34131C10.0448 1.34131 9.91367 1.47248 9.91367 1.63428C9.91367 1.79608 10.0448 1.92725 10.2066 1.92725H10.2277V3.33963H8.97484C8.81304 3.33963 8.68187 3.4708 8.68187 3.6326C8.68187 3.7944 8.81304 3.92557 8.97484 3.92557H10.2277C10.2277 4.1967 10.2277 5.93448 10.2277 6.20491C10.2277 6.41245 10.3965 6.58128 10.604 6.58128H12.8498C13.0609 6.58128 13.2327 6.40952 13.2327 6.19839C13.2327 6.00104 13.2327 4.49499 13.2327 4.26698L15.3201 7.42538C14.6226 8.2673 13.7211 8.52609 12.6864 7.94167C12.3224 7.73613 11.8727 7.99968 11.8727 8.41664V8.62687C11.7561 8.62687 1.10841 8.62687 0.841344 8.62687C0.65689 8.62687 0.537242 8.43835 0.606382 8.27484L3.36506 4.10085C3.37201 4.09034 3.37826 4.07944 3.38377 4.06815C3.42615 3.98155 3.51584 3.92561 3.61229 3.92561H7.60749C7.76929 3.92561 7.90046 3.79444 7.90046 3.63264C7.90046 3.47084 7.76929 3.33967 7.60749 3.33967H3.61237C3.30088 3.33967 3.01064 3.51647 2.86701 3.79182L0.105366 7.97027C0.0984127 7.98077 0.0921627 7.99171 0.0866549 8.003C-0.186861 8.56179 0.220444 9.21285 0.841422 9.21285H0.905094V9.8314C0.905094 10.1552 1.16857 10.4187 1.49244 10.4187H1.81076V18.0732H1.0865C0.924703 18.0732 0.793531 18.2043 0.793531 18.3662C0.793531 18.528 0.924703 18.6592 1.0865 18.6592C1.69943 18.6592 14.85 18.6592 15.4959 18.6592C15.6577 18.6592 15.7888 18.528 15.7888 18.3662C15.7888 18.2043 15.6577 18.0732 15.4959 18.0732H14.6772V16.1108C14.998 16.282 15.338 16.4208 15.6944 16.524L15.6988 16.5252C15.9074 16.5856 15.9644 16.586 16.1662 16.5275L16.1784 16.524C18.303 15.9085 19.7344 14.0646 19.9654 12.0084C19.9835 11.8476 19.8678 11.7026 19.707 11.6845C19.5457 11.6661 19.4013 11.7821 19.3832 11.9429C19.1784 13.7653 17.9109 15.412 16.0154 15.9611L16.0031 15.9646C15.979 15.9716 15.9525 15.9793 15.9366 15.9833C15.9197 15.9791 15.8904 15.9706 15.8618 15.9624L15.8574 15.9611C14.2133 15.4849 13.025 14.1716 12.6173 12.6243C12.513 12.2285 12.4587 11.8177 12.4587 11.3986C12.4587 10.5289 12.4587 9.44296 12.4587 8.48531C13.8299 9.22632 15.1663 8.71726 15.9363 7.58195C16.0401 7.7362 16.3595 8.16773 16.8722 8.48218C17.4198 8.81812 18.3017 9.08675 19.4141 8.48531V10.6084C19.4141 10.7702 19.5452 10.9014 19.707 10.9014ZM12.6468 5.99538H10.8136C10.8136 5.3953 10.8136 2.51721 10.8136 1.92725H12.6468C12.6468 2.68658 12.6468 5.23483 12.6468 5.99538ZM1.49107 9.8314V9.21285H11.8728V9.83273L1.49107 9.8314ZM9.61234 18.0732H6.87776V13.7893C6.87776 13.347 7.23757 12.9872 7.67991 12.9872H8.81019C9.25249 12.9872 9.61234 13.347 9.61234 13.7893V18.0732ZM13.1466 14.8713C13.4229 15.1974 13.7303 15.4859 14.0913 15.7455V18.0732H14.0913H10.1983V13.7893C10.1983 13.0239 9.57562 12.4013 8.81023 12.4013H7.67995C6.91456 12.4013 6.29186 13.0239 6.29186 13.7893V18.0732H2.3967V10.4187H11.8727V11.3986V11.3986C11.8727 11.7387 11.9049 12.0738 11.9665 12.4013H11.5411C11.2489 12.4013 11.0113 12.6389 11.0113 12.931V14.8654C11.0113 15.1575 11.2489 15.3951 11.5411 15.3951H12.6171C12.9072 15.3951 13.1433 15.1607 13.1466 14.8713ZM12.5609 14.0311V14.8091H11.5973V12.9872H12.1117C12.227 13.3607 12.3837 13.7172 12.5609 14.0311Z" fill="#2271B1"/>
</g>
<defs>
<clipPath id="clip0_606_1455">
<rect width="20" height="20" fill="white"/>
</clipPath>
</defs>
</svg>
