<svg width="20" height="20" viewBox="0 0 20 20" fill="none" xmlns="http://www.w3.org/2000/svg">
<path d="M16.6917 14.5641C16.2983 14.9575 16.5807 15.6306 17.1334 15.6306C17.6858 15.6306 17.9691 14.9579 17.5753 14.5641C17.3311 14.3199 16.9359 14.3198 16.6917 14.5641ZM18.665 13.4743C18.7952 13.6044 18.7952 13.8154 18.665 13.9456C18.5349 14.0756 18.324 14.0758 18.1938 13.9456C17.6078 13.3596 16.6592 13.3595 16.0732 13.9456C15.9431 14.0757 15.7321 14.0757 15.602 13.9456C15.4718 13.8154 15.4718 13.6045 15.602 13.4743C16.4484 12.6279 17.8185 12.6277 18.665 13.4743ZM19.6664 12.8061C19.5811 12.8061 19.4958 12.7736 19.4308 12.7085C18.1611 11.4388 16.106 11.4387 14.8362 12.7085C14.706 12.8387 14.4951 12.8387 14.3649 12.7085C14.2348 12.5784 14.2348 12.3674 14.3649 12.2373C15.8952 10.7071 18.3717 10.707 19.9021 12.2373C20.1123 12.4475 19.9611 12.8061 19.6664 12.8061ZM16.9525 16.9768C16.9525 18.0792 16.0557 18.9761 14.9532 18.9761H4.16528C3.06282 18.9761 2.16596 18.0792 2.16596 16.9768V6.87646L0.514614 7.94784C0.36025 8.04801 0.153905 8.00403 0.0537307 7.84966C-0.0464432 7.69526 -0.00250002 7.48891 0.151864 7.38878L7.91736 2.35047C8.89628 1.71535 10.1612 1.71535 11.1401 2.35047L13.0789 3.60837V1.69036C12.8949 1.69036 12.7457 1.54116 12.7457 1.35714C12.7457 1.17312 12.8949 1.02393 13.0789 1.02393H16.6193C16.8033 1.02393 16.9525 1.17312 16.9525 1.35714C16.9525 1.54116 16.8033 1.69036 16.6193 1.69036H16.5777V3.93959C16.5777 4.12361 16.4285 4.27281 16.2445 4.27281C16.0604 4.27281 15.9112 4.12361 15.9112 3.93959V1.69036H13.7453V4.04076L18.9056 7.38878C19.1839 7.56934 19.0539 8.00157 18.7239 8.00157C18.5778 8.00157 19.1047 8.31238 10.7774 2.90953C10.0189 2.41745 9.03873 2.41741 8.28015 2.90953L2.8324 6.44406V16.9768C2.8324 17.7117 3.43032 18.3097 4.16528 18.3097H12.0792V12.7896C12.0792 12.3883 11.7527 12.0618 11.3514 12.0618H7.72543C7.32411 12.0618 6.99759 12.3883 6.99759 12.7896V16.9351C6.99759 17.1191 6.8484 17.2683 6.66438 17.2683C6.48036 17.2683 6.33116 17.1191 6.33116 16.9351V12.7896C6.33116 12.0208 6.95665 11.3954 7.72543 11.3954H11.3514C12.1202 11.3954 12.7457 12.0208 12.7457 12.7896V18.3097H14.9532C15.6882 18.3097 16.2861 17.7117 16.2861 16.9768C16.2861 16.7928 16.4353 16.6436 16.6193 16.6436C16.8033 16.6436 16.9525 16.7928 16.9525 16.9768ZM16.6193 8.06317C16.8033 8.06317 16.9525 8.21237 16.9525 8.39639V9.75009C16.9525 9.93411 16.8033 10.0833 16.6193 10.0833C16.4353 10.0833 16.2861 9.93411 16.2861 9.75009V8.39639C16.2861 8.21237 16.4353 8.06317 16.6193 8.06317Z" fill="#2271B1"/>
</svg>
